<?xml version="1.0" encoding="UTF-8" standalone="no"?>
<!DOCTYPE svg PUBLIC "-//W3C//DTD SVG 1.1//EN" "http://www.w3.org/Graphics/SVG/1.1/DTD/svg11.dtd">
<svg width="100%" height="100%" viewBox="0 0 1000 1000" version="1.1" xmlns="http://www.w3.org/2000/svg" xmlns:xlink="http://www.w3.org/1999/xlink" xml:space="preserve" xmlns:serif="http://www.serif.com/" style="fill-rule:evenodd;clip-rule:evenodd;stroke-linejoin:round;stroke-miterlimit:2;">
    <g transform="matrix(1,0,0,1,-4832,-2200)">
        <g transform="matrix(1,0,0,1,2415.67,2200)">
            <rect id="BlueLogoGradient-V4" x="2416.33" y="0" width="1000" height="1000" style="fill:none;"/>
            <g id="BlueLogoGradient-V41" serif:id="BlueLogoGradient-V4">
                <g transform="matrix(1.95312,0,0,1.95312,2416.33,0)">
                    <g id="Backgrounds">
                        <g id="App-Background" serif:id="App Background">
                            <circle id="Blue-Circle" serif:id="Blue Circle" cx="256" cy="256" r="256" style="fill:rgb(0,97,255);"/>
                        </g>
                    </g>
                </g>
                <g id="Logo-Small" serif:id="Logo Small" transform="matrix(0.252809,0,0,0.253125,2178.93,373.438)">
                    <g transform="matrix(-1.45325e-16,-2.37037,-4.15334,2.54001e-16,15020.9,13138.8)">
                        <path d="M5832,3200C5832,3144.77 5753.65,3100 5657,3100L5007,3100C4910.35,3100 4832,3144.77 4832,3200L4832,3200L5832,3200L5832,3200Z" style="fill:white;"/>
                    </g>
                    <g id="Arrow" transform="matrix(2.96667,0,0,2.96296,-5733.98,-7500)">
                        <path d="M3199.45,3100C3146.02,3100 3094.77,3078.77 3056.99,3040.99C2992.04,2976.04 2886.71,2870.71 2810.28,2794.28C2758.21,2742.21 2758.21,2657.79 2810.28,2605.72C2879.61,2536.39 2972.71,2443.29 3037.89,2378.11C3087.91,2328.1 3155.73,2300 3226.46,2300L3316,2300C3316,2300 2965.61,2650.39 2920.71,2695.29C2919.46,2696.54 2918.76,2698.23 2918.76,2700C2918.76,2701.77 2919.46,2703.46 2920.71,2704.71C2965.61,2749.61 3316,3100 3316,3100L3199.45,3100Z" style="fill:white;"/>
                    </g>
                </g>
            </g>
        </g>
    </g>
</svg>
